<svg width="75" height="75" viewBox="0 0 75 75" fill="none" xmlns="http://www.w3.org/2000/svg">
<path fillrule="evenodd" clip-rule="evenodd" d="M41.1038 0H39.9648V3.05339H41.1038V0ZM46.2969 3.64648L45.7453 4.60173L44.7616 4.03375L45.3131 3.07851L46.2969 3.64648ZM44.084 18.8892C45.0345 18.3163 45.8242 17.5064 46.3679 16.5432C46.8928 15.6152 47.192 14.5383 47.192 13.3881C47.192 11.6158 46.4733 10.0109 45.3119 8.85028C44.1513 7.6889 42.5464 6.97098 40.7741 6.97098C39.0017 6.97098 37.3969 7.68964 36.2363 8.85028C35.0749 10.0117 34.357 11.6165 34.357 13.3881H33.2188C33.2188 11.3017 34.0645 9.41265 35.4316 8.04486C36.7986 6.67783 38.6884 5.83203 40.7741 5.83203C42.8605 5.83203 44.7496 6.67783 46.1166 8.04486C47.4836 9.4119 48.3302 11.3017 48.3302 13.3881C48.3302 14.7335 47.9757 16.0003 47.3543 17.0989C46.7111 18.2371 45.7831 19.1913 44.6695 19.8628L44.084 18.8892ZM26.9848 30.3473H29.5094L37.1896 19.0625L45.5302 31.5274H43.9747L37.1791 21.3718L33.2061 27.209H39.049L39.8619 28.3831H32.4069L30.2363 31.5722H16.5898L17.5912 30.3473H25.6054L26.9038 28.4621H19.0664L19.966 27.3164H27.3089L25.8537 25.6028H21.3047L22.1692 24.5215H24.9354L22.348 21.4747L13.9192 31.4029H9.29688L10.1943 30.2639H13.3957L22.348 19.7188L28.1881 26.5974L37.1845 13.5352L48.7071 30.3928L59.7797 30.3933L58.2966 28.6599H49.9727L50.7721 27.5449H57.3425L55.69 25.6136H51.3047L52.0764 24.5098H54.7455L52.1466 21.4724L48.2691 26.0663L47.4023 25.332L52.1406 19.7188L61.2743 30.3934L64.8281 30.3935L65.6978 31.5287H48.1044L37.1808 15.5453L26.9848 30.3473ZM8.89171 49.9911H66.1083L73.4251 42.7835L66.0866 34.6224H8.9134L1.57493 42.7835L8.89171 49.9911ZM66.3394 51.133H8.66063L8.26129 50.9678L0 42.8299C2.80362 39.7144 5.60649 36.5982 8.40712 33.4805H66.5929L75 42.8299L66.7387 50.9685L66.3394 51.133ZM42.8666 11.0479C43.4021 11.5834 43.7334 12.3237 43.7334 13.1411H44.8716C44.8716 12.0096 44.4124 10.9851 43.6713 10.2432C42.9294 9.50214 41.9049 9.04297 40.7734 9.04297V10.1812C41.5908 10.1812 42.3312 10.5125 42.8666 11.0479ZM24.2825 13.5801C23.9026 13.5801 23.5938 13.8882 23.5938 14.2681C23.5938 14.6487 23.9019 14.9561 24.2825 14.9561C24.6624 14.9561 24.9705 14.648 24.9705 14.2681C24.9705 13.8882 24.6624 13.5801 24.2825 13.5801ZM46.4297 22.2505C46.4297 21.8706 46.7385 21.5625 47.1184 21.5625C47.4991 21.5625 47.8072 21.8714 47.8064 22.2505C47.8064 22.6304 47.4983 22.9385 47.1184 22.9385C46.7378 22.9385 46.4297 22.6304 46.4297 22.2505ZM50.8294 16.7559C50.4487 16.7559 50.1406 17.064 50.1406 17.4439C50.1406 17.8238 50.4487 18.1319 50.8294 18.1319C51.2093 18.1319 51.5174 17.8238 51.5174 17.4439C51.5181 17.064 51.21 16.7559 50.8294 16.7559ZM27.3047 20.8423C27.3047 20.4624 27.6128 20.1543 27.9927 20.1543C28.3733 20.1543 28.6814 20.4624 28.6807 20.8423C28.6807 21.2222 28.3726 21.5303 27.9927 21.5303C27.6128 21.5303 27.3047 21.2222 27.3047 20.8423ZM15.313 21.5195C14.9331 21.5195 14.625 21.8276 14.625 22.2075C14.625 22.5882 14.9331 22.8955 15.313 22.8955C15.6929 22.8955 16.001 22.5874 16.001 22.2075C16.001 21.8276 15.6929 21.5195 15.313 21.5195ZM58.6836 20.97C58.6836 20.5894 58.9917 20.2812 59.3716 20.2812C59.7522 20.2812 60.0604 20.5901 60.0604 20.97C60.0604 21.3499 59.7522 21.658 59.3716 21.658C58.9917 21.658 58.6836 21.3499 58.6836 20.97ZM57.4212 54.4131H59.4148L52.6695 64.2031L48.448 58.6527L36.5732 72.3545L26.9763 60.6771L22.9904 64.322L15.636 54.4116H18.4339L21.5703 58.4193L22.464 57.7208L18.9828 53.2734H10.1719V54.4116H14.2227L22.8273 66.0061L26.8589 62.3201L36.5508 74.1126L48.3927 60.4505L52.7159 66.1355L60.793 54.4131H64.8278V53.2749H53.4929L51.0288 56.8518L48.0143 53.2383L43.8967 58.0693L44.7604 58.8074L47.9081 55.1138L51.0175 58.8687L54.0874 54.4131H56.0426L52.2109 59.9741L52.9139 60.9702L57.4212 54.4131ZM27.4187 55.9492L22.8711 60.0743L23.58 61.0083L27.3005 57.5929L36.3096 68.5539L42.1786 61.7838L41.3201 61.0412L36.3328 66.795L27.4187 55.9492ZM45.2174 53.4843L36.3496 63.6272L35.7109 62.6931L43.6252 53.4753L45.2174 53.4843ZM23.7457 56.4562L21.2539 53.2734H40.6085L34.4217 60.7114L30.1329 55.7428L31.6233 55.7443L34.3761 58.9936L38.187 54.4116H23.5856L24.6393 55.7585L23.7457 56.4562ZM31.7657 11.9297H28.043V13.0567H31.7657V11.9297ZM49.9727 11.9219H53.0261V13.0608H49.9727V11.9219ZM48.4297 7.28034L50.2222 6.24609L50.7868 7.22874L48.995 8.26374L48.4297 7.28034ZM35.832 3.20703L36.3091 4.0334L35.3274 4.60025L34.8502 3.77389L35.832 3.20703ZM32.0794 8.26366L30.2539 7.20921L30.8185 6.22656L32.644 7.28026L32.0794 8.26366ZM59.8316 46.6272H58.2911L62.6023 37.707L66.9256 46.6272H65.385L64.4532 44.6641H64.448L63.8527 43.4092H63.8565L62.6016 40.7507L61.3467 43.4092H62.5567L63.137 44.6641H60.7507L59.8316 46.6272ZM47.8125 39.1354V41.6204H49.1294C50.0597 41.6204 50.5578 41.1358 50.5578 40.3902C50.5578 39.6073 50.0612 39.1354 49.1294 39.1354H47.8125ZM47.8117 46.6272H46.3707V37.8065H49.2528C50.8793 37.8065 52.0108 38.8505 52.0108 40.3409C52.0108 41.4095 51.3901 42.4401 50.0605 42.7758L53.0421 46.6272H51.3026L48.4324 42.8753H47.8117V46.6272ZM44.8683 46.6272H39.6379V37.8065H44.8683V39.2229H41.079V41.4589H44.1227V42.8506H41.079V45.2108H44.8683V46.6272ZM32.2606 46.6272H30.8203V37.8065H32.2613V41.4589H36.2218V37.8065H37.6629V46.6272H36.2218V42.8506H32.2606V46.6272ZM27.3421 46.6272H25.8883V39.2229H23.5401V37.8065H29.7022V39.2229H27.3421V46.6272ZM22.6831 46.6272H17.4528V37.8065H22.6831V39.2229H18.8938V41.4589H21.9375V42.8506H18.8938V45.2108H22.6831V46.6272ZM56.9973 46.7393H55.5443V43.0129L52.3025 37.9202H53.9918L56.2645 41.5718L58.5498 37.9202H60.2392L56.9973 43.0129V46.7393ZM9.61475 46.6272H8.07422L12.3855 37.707L16.7087 46.6272H15.1681L14.4996 45.2182L14.2363 44.6641L13.2634 42.6128L12.3847 40.7507L11.1299 43.4092H12.3443L12.9247 44.6641H10.5338L9.61475 46.6272Z" fill="black"/>
</svg>
