<svg width="32" height="41" viewBox="0 0 32 41" fill="none" xmlns="http://www.w3.org/2000/svg">
<path d="M0 10.228V29.8088L16 40.0151L32 29.8088V10.228L16 0.0151367L0 10.228ZM16 38.1189L1.66874 28.9771L8.36976 24.7057L14.4883 28.6246C14.9482 28.9146 15.4786 29.0681 16.0197 29.0681C16.5608 29.0681 17.0911 28.9146 17.551 28.6246L23.663 24.7057L30.3706 28.9771L16 38.1189ZM17.5313 19.2433C17.0728 19.537 16.542 19.6928 16 19.6928C15.4581 19.6928 14.9273 19.537 14.4688 19.2433L1.66874 11.0863L16.0197 1.95121L30.3706 11.0863L17.5313 19.2433Z" fill="black"/>
</svg>
