<svg width="35" height="32" viewBox="0 0 35 32" fill="none" xmlns="http://www.w3.org/2000/svg">
<path d="M2.75445 2.77021C0.889001 4.62139 -0.0289163 6.84136 0.00069399 9.43011L6.35209 9.34334C6.33729 8.4756 6.64079 7.73802 7.26261 7.1306C7.88442 6.50872 8.63948 6.19778 9.52779 6.19778H28.6486V9.29995C28.6486 10.1532 28.3377 10.8836 27.7159 11.491C27.0941 12.0984 26.3464 12.4021 25.4729 12.4021H12.6591L12.7701 23.2923L19.1215 23.2272L19.0771 18.6065H25.4729C28.0934 18.6065 30.3364 17.6953 32.2018 15.8731C34.0673 14.0653 35 11.8742 35 9.29995V0.0151367H9.52779C6.87767 0.0151367 4.61989 0.933494 2.75445 2.77021ZM12.7701 31.0151H19.1215V24.8108H12.7701V31.0151Z" fill="black"/>
</svg>
