<svg width="258" height="273" viewBox="0 0 258 273" fill="none" xmlns="http://www.w3.org/2000/svg">
<g filter="url(#filter0_d_2482_4269)">
<path d="M11.6348 61.9715L129.899 6L247.133 62.358L241.139 198.776L128.997 265.891L17.9508 198.326L11.6348 61.9715Z" stroke="white" stroke-width="2" shape-rendering="crispEdges"/>
</g>
<path opacity="0.5" d="M14.2969 63.7378L129.889 9.10352L244.473 64.115L238.615 197.274L129.007 262.785L20.4702 196.834L14.2969 63.7378Z" stroke="white"/>
<path d="M125.164 15.8334L129.821 13.541L134.478 15.8334L129.599 24.185L125.164 15.8334Z" fill="white"/>
<path d="M125.619 255.466L128.945 257.537L132.272 255.466L128.945 248.592L125.619 255.466Z" fill="white"/>
<path d="M235.998 64.3196L240.349 66.4754L240.038 71.6645L231.288 71.6645L235.998 64.3196Z" fill="white"/>
<path d="M233.618 190.051L233.619 194.72L229.839 196.704L225.482 189.467L233.618 190.051Z" fill="white"/>
<path d="M25.5637 190.051L25.5623 194.72L29.3429 196.704L33.6998 189.467L25.5637 190.051Z" fill="white"/>
<path d="M23.1636 64.3196L18.8128 66.4754L19.1241 71.6645L27.874 71.6645L23.1636 64.3196Z" fill="white"/>
<path d="M124.723 15.8334L129.379 13.541L134.036 15.8334L129.158 24.185L124.723 15.8334Z" fill="white"/>
<path d="M125.168 255.468L128.494 257.539L131.82 255.468L128.494 248.594L125.168 255.468Z" fill="white"/>
<path d="M235.553 64.3196L239.904 66.4754L239.593 71.6645L230.843 71.6645L235.553 64.3196Z" fill="white"/>
<path d="M233.171 190.051L233.172 194.72L229.391 196.704L225.035 189.467L233.171 190.051Z" fill="white"/>
<path d="M25.1243 190.051L25.1228 194.72L28.9034 196.704L33.2603 189.467L25.1243 190.051Z" fill="white"/>
<path d="M22.7125 64.3196L18.3616 66.4754L18.6729 71.6645L27.4228 71.6645L22.7125 64.3196Z" fill="white"/>
<g filter="url(#filter1_d_2482_4269)">
<path d="M17.4902 198.037L17.4902 213.09" stroke="white" stroke-width="2"/>
<circle r="1" transform="matrix(0.707107 -0.707107 -0.707107 -0.707107 17.6484 214.501)" stroke="white" stroke-width="1.548"/>
</g>
<g filter="url(#filter2_d_2482_4269)">
<path d="M46.7598 216.217L46.7598 223.824" stroke="white" stroke-width="2"/>
<circle r="1" transform="matrix(0.707107 -0.707107 -0.707107 -0.707107 46.918 225.235)" stroke="white" stroke-width="1.548"/>
</g>
<g filter="url(#filter3_d_2482_4269)">
<path d="M208.461 217.993L208.461 225.6" stroke="white" stroke-width="2"/>
<circle r="1" transform="matrix(0.707107 -0.707107 -0.707107 -0.707107 208.619 227.011)" stroke="white" stroke-width="1.548"/>
</g>
<g filter="url(#filter4_d_2482_4269)">
<path d="M90.9395 242.828L90.9395 250.436" stroke="white" stroke-width="2"/>
<circle r="1" transform="matrix(0.707107 -0.707107 -0.707107 -0.707107 91.0977 251.847)" stroke="white" stroke-width="1.548"/>
</g>
<g filter="url(#filter5_d_2482_4269)">
<path d="M141.941 257.465L141.941 265.072" stroke="white" stroke-width="2"/>
<circle r="1" transform="matrix(0.707107 -0.707107 -0.707107 -0.707107 142.1 266.483)" stroke="white" stroke-width="1.548"/>
</g>
<g filter="url(#filter6_d_2482_4269)">
<path d="M15.6876 158.42L10.3086 163.799" stroke="white" stroke-width="2"/>
<circle r="1" transform="matrix(1 0 0 -1 9.42048 164.908)" stroke="white" stroke-width="1.548"/>
</g>
<g filter="url(#filter7_d_2482_4269)">
<path d="M12.795 95.6427L7.41602 90.2637" stroke="white" stroke-width="2"/>
<circle r="1" transform="matrix(-4.37114e-08 1 1 4.37114e-08 6.30915 89.3775)" stroke="white" stroke-width="1.548"/>
</g>
<g filter="url(#filter8_d_2482_4269)">
<path d="M30.9786 52.6231L25.5996 47.2441" stroke="white" stroke-width="2"/>
<circle r="1" transform="matrix(-4.37114e-08 1 1 4.37114e-08 24.4927 46.358)" stroke="white" stroke-width="1.548"/>
</g>
<g filter="url(#filter9_d_2482_4269)">
<path d="M244.029 127.076L249.408 132.455" stroke="white" stroke-width="2"/>
<circle r="1" transform="matrix(-4.37114e-08 -1 -1 4.37114e-08 250.515 133.343)" stroke="white" stroke-width="1.548"/>
</g>
<g filter="url(#filter10_d_2482_4269)">
<path d="M245.803 81.6739L251.182 76.2949" stroke="white" stroke-width="2"/>
<circle r="1" transform="matrix(-1 8.74228e-08 8.74228e-08 1 252.07 75.1861)" stroke="white" stroke-width="1.548"/>
</g>
<g filter="url(#filter11_d_2482_4269)">
<path d="M164.639 23.1329L170.018 17.7539" stroke="white" stroke-width="2"/>
<circle r="1" transform="matrix(-1 8.74228e-08 8.74228e-08 1 170.906 16.6451)" stroke="white" stroke-width="1.548"/>
</g>
<g filter="url(#filter12_d_2482_4269)">
<path d="M240.566 198.965V214.018" stroke="white" stroke-width="2"/>
<circle r="1" transform="matrix(0.707107 -0.707107 -0.707107 -0.707107 240.725 215.429)" stroke="white" stroke-width="1.548"/>
</g>
<defs>
<filter id="filter0_d_2482_4269" x="6.60547" y="0.892578" width="245.555" height="270.166" filterUnits="userSpaceOnUse" color-interpolation-filters="sRGB">
<feFlood flood-opacity="0" result="BackgroundImageFix"/>
<feColorMatrix in="SourceAlpha" type="matrix" values="0 0 0 0 0 0 0 0 0 0 0 0 0 0 0 0 0 0 127 0" result="hardAlpha"/>
<feOffset/>
<feGaussianBlur stdDeviation="2"/>
<feComposite in2="hardAlpha" operator="out"/>
<feColorMatrix type="matrix" values="0 0 0 0 1 0 0 0 0 1 0 0 0 0 1 0 0 0 1 0"/>
<feBlend mode="normal" in2="BackgroundImageFix" result="effect1_dropShadow_2482_4269"/>
<feBlend mode="normal" in="SourceGraphic" in2="effect1_dropShadow_2482_4269" result="shape"/>
</filter>
<filter id="filter1_d_2482_4269" x="11.875" y="194.037" width="11.5469" height="26.2383" filterUnits="userSpaceOnUse" color-interpolation-filters="sRGB">
<feFlood flood-opacity="0" result="BackgroundImageFix"/>
<feColorMatrix in="SourceAlpha" type="matrix" values="0 0 0 0 0 0 0 0 0 0 0 0 0 0 0 0 0 0 127 0" result="hardAlpha"/>
<feOffset/>
<feGaussianBlur stdDeviation="2"/>
<feComposite in2="hardAlpha" operator="out"/>
<feColorMatrix type="matrix" values="0 0 0 0 1 0 0 0 0 1 0 0 0 0 1 0 0 0 1 0"/>
<feBlend mode="normal" in2="BackgroundImageFix" result="effect1_dropShadow_2482_4269"/>
<feBlend mode="normal" in="SourceGraphic" in2="effect1_dropShadow_2482_4269" result="shape"/>
</filter>
<filter id="filter2_d_2482_4269" x="41.1445" y="212.217" width="11.5469" height="18.793" filterUnits="userSpaceOnUse" color-interpolation-filters="sRGB">
<feFlood flood-opacity="0" result="BackgroundImageFix"/>
<feColorMatrix in="SourceAlpha" type="matrix" values="0 0 0 0 0 0 0 0 0 0 0 0 0 0 0 0 0 0 127 0" result="hardAlpha"/>
<feOffset/>
<feGaussianBlur stdDeviation="2"/>
<feComposite in2="hardAlpha" operator="out"/>
<feColorMatrix type="matrix" values="0 0 0 0 1 0 0 0 0 1 0 0 0 0 1 0 0 0 1 0"/>
<feBlend mode="normal" in2="BackgroundImageFix" result="effect1_dropShadow_2482_4269"/>
<feBlend mode="normal" in="SourceGraphic" in2="effect1_dropShadow_2482_4269" result="shape"/>
</filter>
<filter id="filter3_d_2482_4269" x="202.846" y="213.992" width="11.5469" height="18.793" filterUnits="userSpaceOnUse" color-interpolation-filters="sRGB">
<feFlood flood-opacity="0" result="BackgroundImageFix"/>
<feColorMatrix in="SourceAlpha" type="matrix" values="0 0 0 0 0 0 0 0 0 0 0 0 0 0 0 0 0 0 127 0" result="hardAlpha"/>
<feOffset/>
<feGaussianBlur stdDeviation="2"/>
<feComposite in2="hardAlpha" operator="out"/>
<feColorMatrix type="matrix" values="0 0 0 0 1 0 0 0 0 1 0 0 0 0 1 0 0 0 1 0"/>
<feBlend mode="normal" in2="BackgroundImageFix" result="effect1_dropShadow_2482_4269"/>
<feBlend mode="normal" in="SourceGraphic" in2="effect1_dropShadow_2482_4269" result="shape"/>
</filter>
<filter id="filter4_d_2482_4269" x="85.3242" y="238.828" width="11.5469" height="18.793" filterUnits="userSpaceOnUse" color-interpolation-filters="sRGB">
<feFlood flood-opacity="0" result="BackgroundImageFix"/>
<feColorMatrix in="SourceAlpha" type="matrix" values="0 0 0 0 0 0 0 0 0 0 0 0 0 0 0 0 0 0 127 0" result="hardAlpha"/>
<feOffset/>
<feGaussianBlur stdDeviation="2"/>
<feComposite in2="hardAlpha" operator="out"/>
<feColorMatrix type="matrix" values="0 0 0 0 1 0 0 0 0 1 0 0 0 0 1 0 0 0 1 0"/>
<feBlend mode="normal" in2="BackgroundImageFix" result="effect1_dropShadow_2482_4269"/>
<feBlend mode="normal" in="SourceGraphic" in2="effect1_dropShadow_2482_4269" result="shape"/>
</filter>
<filter id="filter5_d_2482_4269" x="136.326" y="253.465" width="11.5469" height="18.793" filterUnits="userSpaceOnUse" color-interpolation-filters="sRGB">
<feFlood flood-opacity="0" result="BackgroundImageFix"/>
<feColorMatrix in="SourceAlpha" type="matrix" values="0 0 0 0 0 0 0 0 0 0 0 0 0 0 0 0 0 0 127 0" result="hardAlpha"/>
<feOffset/>
<feGaussianBlur stdDeviation="2"/>
<feComposite in2="hardAlpha" operator="out"/>
<feColorMatrix type="matrix" values="0 0 0 0 1 0 0 0 0 1 0 0 0 0 1 0 0 0 1 0"/>
<feBlend mode="normal" in2="BackgroundImageFix" result="effect1_dropShadow_2482_4269"/>
<feBlend mode="normal" in="SourceGraphic" in2="effect1_dropShadow_2482_4269" result="shape"/>
</filter>
<filter id="filter6_d_2482_4269" x="3.64648" y="153.713" width="16.748" height="16.9688" filterUnits="userSpaceOnUse" color-interpolation-filters="sRGB">
<feFlood flood-opacity="0" result="BackgroundImageFix"/>
<feColorMatrix in="SourceAlpha" type="matrix" values="0 0 0 0 0 0 0 0 0 0 0 0 0 0 0 0 0 0 127 0" result="hardAlpha"/>
<feOffset/>
<feGaussianBlur stdDeviation="2"/>
<feComposite in2="hardAlpha" operator="out"/>
<feColorMatrix type="matrix" values="0 0 0 0 1 0 0 0 0 1 0 0 0 0 1 0 0 0 1 0"/>
<feBlend mode="normal" in2="BackgroundImageFix" result="effect1_dropShadow_2482_4269"/>
<feBlend mode="normal" in="SourceGraphic" in2="effect1_dropShadow_2482_4269" result="shape"/>
</filter>
<filter id="filter7_d_2482_4269" x="0.535156" y="83.6035" width="16.9668" height="16.7461" filterUnits="userSpaceOnUse" color-interpolation-filters="sRGB">
<feFlood flood-opacity="0" result="BackgroundImageFix"/>
<feColorMatrix in="SourceAlpha" type="matrix" values="0 0 0 0 0 0 0 0 0 0 0 0 0 0 0 0 0 0 127 0" result="hardAlpha"/>
<feOffset/>
<feGaussianBlur stdDeviation="2"/>
<feComposite in2="hardAlpha" operator="out"/>
<feColorMatrix type="matrix" values="0 0 0 0 1 0 0 0 0 1 0 0 0 0 1 0 0 0 1 0"/>
<feBlend mode="normal" in2="BackgroundImageFix" result="effect1_dropShadow_2482_4269"/>
<feBlend mode="normal" in="SourceGraphic" in2="effect1_dropShadow_2482_4269" result="shape"/>
</filter>
<filter id="filter8_d_2482_4269" x="18.7188" y="40.584" width="16.9668" height="16.7461" filterUnits="userSpaceOnUse" color-interpolation-filters="sRGB">
<feFlood flood-opacity="0" result="BackgroundImageFix"/>
<feColorMatrix in="SourceAlpha" type="matrix" values="0 0 0 0 0 0 0 0 0 0 0 0 0 0 0 0 0 0 127 0" result="hardAlpha"/>
<feOffset/>
<feGaussianBlur stdDeviation="2"/>
<feComposite in2="hardAlpha" operator="out"/>
<feColorMatrix type="matrix" values="0 0 0 0 1 0 0 0 0 1 0 0 0 0 1 0 0 0 1 0"/>
<feBlend mode="normal" in2="BackgroundImageFix" result="effect1_dropShadow_2482_4269"/>
<feBlend mode="normal" in="SourceGraphic" in2="effect1_dropShadow_2482_4269" result="shape"/>
</filter>
<filter id="filter9_d_2482_4269" x="239.322" y="122.369" width="16.9668" height="16.748" filterUnits="userSpaceOnUse" color-interpolation-filters="sRGB">
<feFlood flood-opacity="0" result="BackgroundImageFix"/>
<feColorMatrix in="SourceAlpha" type="matrix" values="0 0 0 0 0 0 0 0 0 0 0 0 0 0 0 0 0 0 127 0" result="hardAlpha"/>
<feOffset/>
<feGaussianBlur stdDeviation="2"/>
<feComposite in2="hardAlpha" operator="out"/>
<feColorMatrix type="matrix" values="0 0 0 0 1 0 0 0 0 1 0 0 0 0 1 0 0 0 1 0"/>
<feBlend mode="normal" in2="BackgroundImageFix" result="effect1_dropShadow_2482_4269"/>
<feBlend mode="normal" in="SourceGraphic" in2="effect1_dropShadow_2482_4269" result="shape"/>
</filter>
<filter id="filter10_d_2482_4269" x="241.096" y="69.4121" width="16.748" height="16.9688" filterUnits="userSpaceOnUse" color-interpolation-filters="sRGB">
<feFlood flood-opacity="0" result="BackgroundImageFix"/>
<feColorMatrix in="SourceAlpha" type="matrix" values="0 0 0 0 0 0 0 0 0 0 0 0 0 0 0 0 0 0 127 0" result="hardAlpha"/>
<feOffset/>
<feGaussianBlur stdDeviation="2"/>
<feComposite in2="hardAlpha" operator="out"/>
<feColorMatrix type="matrix" values="0 0 0 0 1 0 0 0 0 1 0 0 0 0 1 0 0 0 1 0"/>
<feBlend mode="normal" in2="BackgroundImageFix" result="effect1_dropShadow_2482_4269"/>
<feBlend mode="normal" in="SourceGraphic" in2="effect1_dropShadow_2482_4269" result="shape"/>
</filter>
<filter id="filter11_d_2482_4269" x="159.932" y="10.8711" width="16.748" height="16.9688" filterUnits="userSpaceOnUse" color-interpolation-filters="sRGB">
<feFlood flood-opacity="0" result="BackgroundImageFix"/>
<feColorMatrix in="SourceAlpha" type="matrix" values="0 0 0 0 0 0 0 0 0 0 0 0 0 0 0 0 0 0 127 0" result="hardAlpha"/>
<feOffset/>
<feGaussianBlur stdDeviation="2"/>
<feComposite in2="hardAlpha" operator="out"/>
<feColorMatrix type="matrix" values="0 0 0 0 1 0 0 0 0 1 0 0 0 0 1 0 0 0 1 0"/>
<feBlend mode="normal" in2="BackgroundImageFix" result="effect1_dropShadow_2482_4269"/>
<feBlend mode="normal" in="SourceGraphic" in2="effect1_dropShadow_2482_4269" result="shape"/>
</filter>
<filter id="filter12_d_2482_4269" x="234.951" y="194.965" width="11.5469" height="26.2383" filterUnits="userSpaceOnUse" color-interpolation-filters="sRGB">
<feFlood flood-opacity="0" result="BackgroundImageFix"/>
<feColorMatrix in="SourceAlpha" type="matrix" values="0 0 0 0 0 0 0 0 0 0 0 0 0 0 0 0 0 0 127 0" result="hardAlpha"/>
<feOffset/>
<feGaussianBlur stdDeviation="2"/>
<feComposite in2="hardAlpha" operator="out"/>
<feColorMatrix type="matrix" values="0 0 0 0 1 0 0 0 0 1 0 0 0 0 1 0 0 0 1 0"/>
<feBlend mode="normal" in2="BackgroundImageFix" result="effect1_dropShadow_2482_4269"/>
<feBlend mode="normal" in="SourceGraphic" in2="effect1_dropShadow_2482_4269" result="shape"/>
</filter>
</defs>
</svg>
