<svg width="556" height="612" viewBox="0 0 556 612" fill="none" xmlns="http://www.w3.org/2000/svg">
<path d="M12 138.204L278.663 12L543 139.076L529.485 446.671L276.628 598L26.2414 445.655L12 138.204Z" stroke="white" strokeWidth="2"/>
<path opacity="0.5" d="M18 142.189L278.636 19L537 143.04L523.791 443.286L276.648 591L31.9195 442.294L18 142.189Z" stroke="white"/>
<path d="M268 34.1688L278.5 29L289 34.1688L278 53L268 34.1688Z" fill="white"/>
<path d="M266 8L279.125 2L292.5 8" stroke="white" strokeWidth="2"/>
<path d="M269 574.5L276.5 579.169L284 574.5L276.5 559L269 574.5Z" fill="white"/>
<path d="M264.5 603L277.125 610L289.5 603" stroke="white" strokeWidth="2"/>
<path d="M517.892 143.5L527.702 148.361L527 160.061L507.271 160.061L517.892 143.5Z" fill="white"/>
<path d="M543.004 130L550.703 134.414L550.703 145" stroke="white" strokeWidth="2"/>
<path d="M512.521 427L512.525 437.527L504 442L494.176 425.683L512.521 427Z" fill="white"/>
<path d="M538.074 441.597L538.101 450.472L530.504 455.5" stroke="white" strokeWidth="2"/>
<path d="M43.4162 427L43.413 437.527L51.9375 442L61.7614 425.683L43.4162 427Z" fill="white"/>
<path d="M17.8635 441.597L17.8363 450.472L25.4336 455.5" stroke="white" strokeWidth="2"/>
<path d="M37.9911 143.5L28.1809 148.361L28.8828 160.061L48.6121 160.061L37.9911 143.5Z" fill="white"/>
<path d="M12.8791 130L5.17937 134.414L5.17937 145" stroke="white" strokeWidth="2"/>
</svg>
