<svg width="464" height="490" viewBox="0 0 464 490" fill="none" xmlns="http://www.w3.org/2000/svg">
<g filter="url(#filter0_d_28_137)">
<path d="M16.9736 108.338L233.207 6L447.555 109.044L436.596 358.47L231.557 481.181L28.5218 357.645L16.9736 108.338Z" stroke="white" stroke-width="2" shape-rendering="crispEdges"/>
</g>
<path opacity="0.5" d="M21.8389 111.569L233.186 11.6763L442.69 112.259L431.979 355.725L231.573 475.504L33.1261 354.921L21.8389 111.569Z" stroke="white"/>
<path d="M224.56 23.976L233.074 19.7847L241.589 23.976L232.669 39.246L224.56 23.976Z" fill="white"/>
<path d="M225.372 462.123L231.453 465.909L237.535 462.123L231.453 449.554L225.372 462.123Z" fill="white"/>
<path d="M427.196 112.631L435.151 116.573L434.581 126.061L418.583 126.061L427.196 112.631Z" fill="white"/>
<path d="M422.839 342.519L422.842 351.055L415.93 354.683L407.963 341.451L422.839 342.519Z" fill="white"/>
<path d="M42.4507 342.519L42.4481 351.055L49.3605 354.683L57.3266 341.451L42.4507 342.519Z" fill="white"/>
<path d="M38.049 112.631L30.0941 116.573L30.6632 126.061L46.6614 126.061L38.049 112.631Z" fill="white"/>
<path d="M223.751 23.9763L232.266 19.785L240.78 23.9763L231.86 39.2464L223.751 23.9763Z" fill="white"/>
<path d="M224.562 462.124L230.643 465.91L236.725 462.124L230.643 449.555L224.562 462.124Z" fill="white"/>
<path d="M426.385 112.632L434.34 116.573L433.771 126.061L417.773 126.061L426.385 112.632Z" fill="white"/>
<path d="M422.03 342.52L422.033 351.056L415.121 354.683L407.154 341.452L422.03 342.52Z" fill="white"/>
<path d="M41.6392 342.52L41.6365 351.056L48.549 354.683L56.5151 341.452L41.6392 342.52Z" fill="white"/>
<path d="M37.2385 112.632L29.2836 116.573L29.8527 126.061L45.8509 126.061L37.2385 112.632Z" fill="white"/>
<g filter="url(#filter1_d_28_137)">
<path d="M27.689 357.116L27.689 384.638" stroke="white" stroke-width="2"/>
<circle r="2.24355" transform="matrix(0.7071 -0.707114 -0.7071 -0.707114 27.9756 387.218)" stroke="white" stroke-width="2"/>
</g>
<g filter="url(#filter2_d_28_137)">
<path d="M81.2051 390.363L81.2051 404.271" stroke="white" stroke-width="2"/>
<circle r="2.24355" transform="matrix(0.70711 -0.707104 -0.70711 -0.707104 81.4932 406.851)" stroke="white" stroke-width="2"/>
</g>
<g filter="url(#filter3_d_28_137)">
<path d="M376.859 393.606L376.859 407.515" stroke="white" stroke-width="2"/>
<circle r="2.24355" transform="matrix(0.707107 -0.707107 -0.707107 -0.707107 377.147 410.094)" stroke="white" stroke-width="2"/>
</g>
<g filter="url(#filter4_d_28_137)">
<path d="M161.976 439.017L161.976 452.926" stroke="white" stroke-width="2"/>
<circle r="2.24355" transform="matrix(0.707107 -0.707107 -0.707107 -0.707107 162.264 455.505)" stroke="white" stroke-width="2"/>
</g>
<g filter="url(#filter5_d_28_137)">
<path d="M255.226 465.776L255.226 479.685" stroke="white" stroke-width="2"/>
<circle r="2.24355" transform="matrix(0.707111 -0.707103 -0.707111 -0.707103 255.514 482.264)" stroke="white" stroke-width="2"/>
</g>
<g filter="url(#filter6_d_28_137)">
<path d="M24.3754 284.687L14.5405 294.521" stroke="white" stroke-width="2"/>
<circle r="2.24355" transform="matrix(1 0 0 -1 12.9203 296.55)" stroke="white" stroke-width="2"/>
</g>
<g filter="url(#filter7_d_28_137)">
<path d="M19.1073 169.903L9.27246 160.068" stroke="white" stroke-width="2"/>
<circle r="2.24355" transform="matrix(-4.37102e-08 1 1 4.37126e-08 7.24355 158.447)" stroke="white" stroke-width="2"/>
</g>
<g filter="url(#filter8_d_28_137)">
<path d="M52.3539 91.2464L42.519 81.4115" stroke="white" stroke-width="2"/>
<circle r="2.24355" transform="matrix(-4.37118e-08 1 1 4.3711e-08 40.4901 79.7914)" stroke="white" stroke-width="2"/>
</g>
<g filter="url(#filter9_d_28_137)">
<path d="M441.878 227.374L451.712 237.209" stroke="white" stroke-width="2"/>
<circle r="2.24355" transform="matrix(-4.37097e-08 -1 -1 4.3713e-08 453.741 238.829)" stroke="white" stroke-width="2"/>
</g>
<g filter="url(#filter10_d_28_137)">
<path d="M445.125 144.364L454.959 134.529" stroke="white" stroke-width="2"/>
<circle r="2.24355" transform="matrix(-1 8.74211e-08 8.74244e-08 1 456.58 132.5)" stroke="white" stroke-width="2"/>
</g>
<g filter="url(#filter11_d_28_137)">
<path d="M296.732 37.326L306.567 27.4911" stroke="white" stroke-width="2"/>
<circle r="2.24355" transform="matrix(-1 8.74228e-08 8.74228e-08 1 308.187 25.4623)" stroke="white" stroke-width="2"/>
</g>
<g filter="url(#filter12_d_28_137)">
<path d="M435.567 358.811V386.333" stroke="white" stroke-width="2"/>
<circle r="2.24355" transform="matrix(0.707107 -0.707107 -0.707107 -0.707107 435.854 388.913)" stroke="white" stroke-width="2"/>
</g>
<defs>
<filter id="filter0_d_28_137" x="11.9438" y="0.89209" width="440.64" height="485.456" filterUnits="userSpaceOnUse" color-interpolation-filters="sRGB">
<feFlood flood-opacity="0" result="BackgroundImageFix"/>
<feColorMatrix in="SourceAlpha" type="matrix" values="0 0 0 0 0 0 0 0 0 0 0 0 0 0 0 0 0 0 127 0" result="hardAlpha"/>
<feOffset/>
<feGaussianBlur stdDeviation="2"/>
<feComposite in2="hardAlpha" operator="out"/>
<feColorMatrix type="matrix" values="0 0 0 0 1 0 0 0 0 1 0 0 0 0 1 0 0 0 1 0"/>
<feBlend mode="normal" in2="BackgroundImageFix" result="effect1_dropShadow_28_137"/>
<feBlend mode="normal" in="SourceGraphic" in2="effect1_dropShadow_28_137" result="shape"/>
</filter>
<filter id="filter1_d_28_137" x="20.7319" y="353.116" width="14.4873" height="41.3457" filterUnits="userSpaceOnUse" color-interpolation-filters="sRGB">
<feFlood flood-opacity="0" result="BackgroundImageFix"/>
<feColorMatrix in="SourceAlpha" type="matrix" values="0 0 0 0 0 0 0 0 0 0 0 0 0 0 0 0 0 0 127 0" result="hardAlpha"/>
<feOffset/>
<feGaussianBlur stdDeviation="2"/>
<feComposite in2="hardAlpha" operator="out"/>
<feColorMatrix type="matrix" values="0 0 0 0 1 0 0 0 0 1 0 0 0 0 1 0 0 0 1 0"/>
<feBlend mode="normal" in2="BackgroundImageFix" result="effect1_dropShadow_28_137"/>
<feBlend mode="normal" in="SourceGraphic" in2="effect1_dropShadow_28_137" result="shape"/>
</filter>
<filter id="filter2_d_28_137" x="74.2495" y="386.363" width="14.4873" height="27.7317" filterUnits="userSpaceOnUse" color-interpolation-filters="sRGB">
<feFlood flood-opacity="0" result="BackgroundImageFix"/>
<feColorMatrix in="SourceAlpha" type="matrix" values="0 0 0 0 0 0 0 0 0 0 0 0 0 0 0 0 0 0 127 0" result="hardAlpha"/>
<feOffset/>
<feGaussianBlur stdDeviation="2"/>
<feComposite in2="hardAlpha" operator="out"/>
<feColorMatrix type="matrix" values="0 0 0 0 1 0 0 0 0 1 0 0 0 0 1 0 0 0 1 0"/>
<feBlend mode="normal" in2="BackgroundImageFix" result="effect1_dropShadow_28_137"/>
<feBlend mode="normal" in="SourceGraphic" in2="effect1_dropShadow_28_137" result="shape"/>
</filter>
<filter id="filter3_d_28_137" x="369.904" y="389.606" width="14.4873" height="27.7317" filterUnits="userSpaceOnUse" color-interpolation-filters="sRGB">
<feFlood flood-opacity="0" result="BackgroundImageFix"/>
<feColorMatrix in="SourceAlpha" type="matrix" values="0 0 0 0 0 0 0 0 0 0 0 0 0 0 0 0 0 0 127 0" result="hardAlpha"/>
<feOffset/>
<feGaussianBlur stdDeviation="2"/>
<feComposite in2="hardAlpha" operator="out"/>
<feColorMatrix type="matrix" values="0 0 0 0 1 0 0 0 0 1 0 0 0 0 1 0 0 0 1 0"/>
<feBlend mode="normal" in2="BackgroundImageFix" result="effect1_dropShadow_28_137"/>
<feBlend mode="normal" in="SourceGraphic" in2="effect1_dropShadow_28_137" result="shape"/>
</filter>
<filter id="filter4_d_28_137" x="155.02" y="435.017" width="14.4873" height="27.7317" filterUnits="userSpaceOnUse" color-interpolation-filters="sRGB">
<feFlood flood-opacity="0" result="BackgroundImageFix"/>
<feColorMatrix in="SourceAlpha" type="matrix" values="0 0 0 0 0 0 0 0 0 0 0 0 0 0 0 0 0 0 127 0" result="hardAlpha"/>
<feOffset/>
<feGaussianBlur stdDeviation="2"/>
<feComposite in2="hardAlpha" operator="out"/>
<feColorMatrix type="matrix" values="0 0 0 0 1 0 0 0 0 1 0 0 0 0 1 0 0 0 1 0"/>
<feBlend mode="normal" in2="BackgroundImageFix" result="effect1_dropShadow_28_137"/>
<feBlend mode="normal" in="SourceGraphic" in2="effect1_dropShadow_28_137" result="shape"/>
</filter>
<filter id="filter5_d_28_137" x="248.27" y="461.776" width="14.4873" height="27.7314" filterUnits="userSpaceOnUse" color-interpolation-filters="sRGB">
<feFlood flood-opacity="0" result="BackgroundImageFix"/>
<feColorMatrix in="SourceAlpha" type="matrix" values="0 0 0 0 0 0 0 0 0 0 0 0 0 0 0 0 0 0 127 0" result="hardAlpha"/>
<feOffset/>
<feGaussianBlur stdDeviation="2"/>
<feComposite in2="hardAlpha" operator="out"/>
<feColorMatrix type="matrix" values="0 0 0 0 1 0 0 0 0 1 0 0 0 0 1 0 0 0 1 0"/>
<feBlend mode="normal" in2="BackgroundImageFix" result="effect1_dropShadow_28_137"/>
<feBlend mode="normal" in="SourceGraphic" in2="effect1_dropShadow_28_137" result="shape"/>
</filter>
<filter id="filter6_d_28_137" x="5.67676" y="279.979" width="23.4058" height="23.8145" filterUnits="userSpaceOnUse" color-interpolation-filters="sRGB">
<feFlood flood-opacity="0" result="BackgroundImageFix"/>
<feColorMatrix in="SourceAlpha" type="matrix" values="0 0 0 0 0 0 0 0 0 0 0 0 0 0 0 0 0 0 127 0" result="hardAlpha"/>
<feOffset/>
<feGaussianBlur stdDeviation="2"/>
<feComposite in2="hardAlpha" operator="out"/>
<feColorMatrix type="matrix" values="0 0 0 0 1 0 0 0 0 1 0 0 0 0 1 0 0 0 1 0"/>
<feBlend mode="normal" in2="BackgroundImageFix" result="effect1_dropShadow_28_137"/>
<feBlend mode="normal" in="SourceGraphic" in2="effect1_dropShadow_28_137" result="shape"/>
</filter>
<filter id="filter7_d_28_137" x="0" y="151.204" width="23.8145" height="23.4062" filterUnits="userSpaceOnUse" color-interpolation-filters="sRGB">
<feFlood flood-opacity="0" result="BackgroundImageFix"/>
<feColorMatrix in="SourceAlpha" type="matrix" values="0 0 0 0 0 0 0 0 0 0 0 0 0 0 0 0 0 0 127 0" result="hardAlpha"/>
<feOffset/>
<feGaussianBlur stdDeviation="2"/>
<feComposite in2="hardAlpha" operator="out"/>
<feColorMatrix type="matrix" values="0 0 0 0 1 0 0 0 0 1 0 0 0 0 1 0 0 0 1 0"/>
<feBlend mode="normal" in2="BackgroundImageFix" result="effect1_dropShadow_28_137"/>
<feBlend mode="normal" in="SourceGraphic" in2="effect1_dropShadow_28_137" result="shape"/>
</filter>
<filter id="filter8_d_28_137" x="33.2466" y="72.5479" width="23.8145" height="23.4056" filterUnits="userSpaceOnUse" color-interpolation-filters="sRGB">
<feFlood flood-opacity="0" result="BackgroundImageFix"/>
<feColorMatrix in="SourceAlpha" type="matrix" values="0 0 0 0 0 0 0 0 0 0 0 0 0 0 0 0 0 0 127 0" result="hardAlpha"/>
<feOffset/>
<feGaussianBlur stdDeviation="2"/>
<feComposite in2="hardAlpha" operator="out"/>
<feColorMatrix type="matrix" values="0 0 0 0 1 0 0 0 0 1 0 0 0 0 1 0 0 0 1 0"/>
<feBlend mode="normal" in2="BackgroundImageFix" result="effect1_dropShadow_28_137"/>
<feBlend mode="normal" in="SourceGraphic" in2="effect1_dropShadow_28_137" result="shape"/>
</filter>
<filter id="filter9_d_28_137" x="437.17" y="222.667" width="23.8145" height="23.406" filterUnits="userSpaceOnUse" color-interpolation-filters="sRGB">
<feFlood flood-opacity="0" result="BackgroundImageFix"/>
<feColorMatrix in="SourceAlpha" type="matrix" values="0 0 0 0 0 0 0 0 0 0 0 0 0 0 0 0 0 0 127 0" result="hardAlpha"/>
<feOffset/>
<feGaussianBlur stdDeviation="2"/>
<feComposite in2="hardAlpha" operator="out"/>
<feColorMatrix type="matrix" values="0 0 0 0 1 0 0 0 0 1 0 0 0 0 1 0 0 0 1 0"/>
<feBlend mode="normal" in2="BackgroundImageFix" result="effect1_dropShadow_28_137"/>
<feBlend mode="normal" in="SourceGraphic" in2="effect1_dropShadow_28_137" result="shape"/>
</filter>
<filter id="filter10_d_28_137" x="440.417" y="125.256" width="23.4058" height="23.8145" filterUnits="userSpaceOnUse" color-interpolation-filters="sRGB">
<feFlood flood-opacity="0" result="BackgroundImageFix"/>
<feColorMatrix in="SourceAlpha" type="matrix" values="0 0 0 0 0 0 0 0 0 0 0 0 0 0 0 0 0 0 127 0" result="hardAlpha"/>
<feOffset/>
<feGaussianBlur stdDeviation="2"/>
<feComposite in2="hardAlpha" operator="out"/>
<feColorMatrix type="matrix" values="0 0 0 0 1 0 0 0 0 1 0 0 0 0 1 0 0 0 1 0"/>
<feBlend mode="normal" in2="BackgroundImageFix" result="effect1_dropShadow_28_137"/>
<feBlend mode="normal" in="SourceGraphic" in2="effect1_dropShadow_28_137" result="shape"/>
</filter>
<filter id="filter11_d_28_137" x="292.025" y="18.2188" width="23.4058" height="23.8143" filterUnits="userSpaceOnUse" color-interpolation-filters="sRGB">
<feFlood flood-opacity="0" result="BackgroundImageFix"/>
<feColorMatrix in="SourceAlpha" type="matrix" values="0 0 0 0 0 0 0 0 0 0 0 0 0 0 0 0 0 0 127 0" result="hardAlpha"/>
<feOffset/>
<feGaussianBlur stdDeviation="2"/>
<feComposite in2="hardAlpha" operator="out"/>
<feColorMatrix type="matrix" values="0 0 0 0 1 0 0 0 0 1 0 0 0 0 1 0 0 0 1 0"/>
<feBlend mode="normal" in2="BackgroundImageFix" result="effect1_dropShadow_28_137"/>
<feBlend mode="normal" in="SourceGraphic" in2="effect1_dropShadow_28_137" result="shape"/>
</filter>
<filter id="filter12_d_28_137" x="428.61" y="354.811" width="14.4873" height="41.3455" filterUnits="userSpaceOnUse" color-interpolation-filters="sRGB">
<feFlood flood-opacity="0" result="BackgroundImageFix"/>
<feColorMatrix in="SourceAlpha" type="matrix" values="0 0 0 0 0 0 0 0 0 0 0 0 0 0 0 0 0 0 127 0" result="hardAlpha"/>
<feOffset/>
<feGaussianBlur stdDeviation="2"/>
<feComposite in2="hardAlpha" operator="out"/>
<feColorMatrix type="matrix" values="0 0 0 0 1 0 0 0 0 1 0 0 0 0 1 0 0 0 1 0"/>
<feBlend mode="normal" in2="BackgroundImageFix" result="effect1_dropShadow_28_137"/>
<feBlend mode="normal" in="SourceGraphic" in2="effect1_dropShadow_28_137" result="shape"/>
</filter>
</defs>
</svg>
