<svg width="142" height="163" viewBox="0 0 142 163" fill="none" xmlns="http://www.w3.org/2000/svg">
<g opacity="0.5">
<mask id="path-1-inside-1_3246_61030" fill="white">
<path d="M70.5844 7.02344L135.081 44.2605V118.735L70.5844 155.972L6.08789 118.735V44.2605L70.5844 7.02344Z"/>
</mask>
<path d="M70.5844 7.02344L70.9797 6.3388L70.5844 6.11059L70.1892 6.3388L70.5844 7.02344ZM135.081 44.2605H135.872V43.8041L135.476 43.5759L135.081 44.2605ZM135.081 118.735L135.476 119.419L135.872 119.191V118.735H135.081ZM70.5844 155.972L70.1892 156.656L70.5844 156.885L70.9797 156.656L70.5844 155.972ZM6.08789 118.735H5.29734V119.191L5.69262 119.419L6.08789 118.735ZM6.08789 44.2605L5.69262 43.5759L5.29734 43.8041V44.2605H6.08789ZM70.1892 7.70807L134.686 44.9452L135.476 43.5759L70.9797 6.3388L70.1892 7.70807ZM134.29 44.2605V118.735H135.872V44.2605H134.29ZM134.686 118.05L70.1892 155.287L70.9797 156.656L135.476 119.419L134.686 118.05ZM70.9797 155.287L6.48317 118.05L5.69262 119.419L70.1892 156.656L70.9797 155.287ZM6.87844 118.735V44.2605H5.29734V118.735H6.87844ZM6.48317 44.9452L70.9797 7.70807L70.1892 6.3388L5.69262 43.5759L6.48317 44.9452Z" fill="white" mask="url(#path-1-inside-1_3246_61030)"/>
</g>
<g opacity="0.1">
<mask id="path-3-inside-2_3246_61030" fill="white">
<path d="M70.5811 0L141.162 40.75V122.25L70.5811 163L0 122.25V40.75L70.5811 0Z"/>
</mask>
<path d="M70.5811 0L70.9764 -0.684636L70.5811 -0.912848L70.1858 -0.684636L70.5811 0ZM141.162 40.75H141.953V40.2936L141.557 40.0654L141.162 40.75ZM141.162 122.25L141.557 122.935L141.953 122.706V122.25H141.162ZM70.5811 163L70.1858 163.685L70.5811 163.913L70.9764 163.685L70.5811 163ZM0 122.25H-0.790549V122.706L-0.395275 122.935L0 122.25ZM0 40.75L-0.395275 40.0654L-0.790549 40.2936V40.75H0ZM70.1858 0.684636L140.767 41.4347L141.557 40.0654L70.9764 -0.684636L70.1858 0.684636ZM140.372 40.75V122.25H141.953V40.75H140.372ZM140.767 121.565L70.1858 162.315L70.9764 163.685L141.557 122.935L140.767 121.565ZM70.9764 162.315L0.395275 121.565L-0.395275 122.935L70.1858 163.685L70.9764 162.315ZM0.790549 122.25V40.75H-0.790549V122.25H0.790549ZM0.395275 41.4347L70.9764 0.684636L70.1858 -0.684636L-0.395275 40.0654L0.395275 41.4347Z" fill="white" mask="url(#path-3-inside-2_3246_61030)"/>
</g>
</svg>
