<svg width="257" height="272" viewBox="0 0 257 272" fill="none" xmlns="http://www.w3.org/2000/svg">
<g filter="url(#filter0_d_112_4)">
<path d="M11.0872 61.9033L129.208 6L246.299 62.2893L240.312 198.542L128.307 265.574L17.3955 198.091L11.0872 61.9033Z" stroke="white" stroke-width="2" shape-rendering="crispEdges"/>
</g>
<path opacity="0.5" d="M13.7449 63.6684L129.196 9.10059L243.641 64.0451L237.79 197.042L128.315 262.473L19.9107 196.603L13.7449 63.6684Z" stroke="white"/>
<path d="M124.484 15.8189L129.135 13.5293L133.787 15.8189L128.914 24.1603L124.484 15.8189Z" fill="white"/>
<path d="M124.927 255.164L128.25 257.232L131.572 255.164L128.25 248.298L124.927 255.164Z" fill="white"/>
<path d="M235.177 64.2487L239.522 66.4018L239.211 71.5846L230.472 71.5846L235.177 64.2487Z" fill="white"/>
<path d="M232.798 189.83L232.799 194.493L229.023 196.474L224.671 189.246L232.798 189.83Z" fill="white"/>
<path d="M25.0049 189.83L25.0034 194.493L28.7794 196.474L33.131 189.246L25.0049 189.83Z" fill="white"/>
<path d="M22.6 64.2487L18.2545 66.4018L18.5654 71.5846L27.3046 71.5846L22.6 64.2487Z" fill="white"/>
<path d="M124.043 15.8208L128.694 13.5312L133.345 15.8208L128.472 24.1623L124.043 15.8208Z" fill="white"/>
<path d="M124.485 255.164L127.807 257.232L131.129 255.164L127.807 248.298L124.485 255.164Z" fill="white"/>
<path d="M234.734 64.2496L239.08 66.4028L238.769 71.5856L230.029 71.5856L234.734 64.2496Z" fill="white"/>
<path d="M232.355 189.83L232.356 194.493L228.58 196.474L224.229 189.246L232.355 189.83Z" fill="white"/>
<path d="M24.561 189.83L24.5596 194.493L28.3356 196.474L32.6872 189.246L24.561 189.83Z" fill="white"/>
<path d="M22.1569 64.2487L17.8114 66.4018L18.1223 71.5847L26.8615 71.5847L22.1569 64.2487Z" fill="white"/>
<g filter="url(#filter1_d_112_4)">
<path d="M16.9402 197.801L16.9402 212.836" stroke="white" stroke-width="2"/>
<circle r="1" transform="matrix(0.7071 -0.707114 -0.7071 -0.707114 17.0969 214.245)" stroke="white" stroke-width="1.54367"/>
</g>
<g filter="url(#filter2_d_112_4)">
<path d="M46.1743 215.964L46.1743 223.562" stroke="white" stroke-width="2"/>
<circle r="1" transform="matrix(0.70711 -0.707104 -0.70711 -0.707104 46.3318 224.971)" stroke="white" stroke-width="1.54367"/>
</g>
<g filter="url(#filter3_d_112_4)">
<path d="M207.68 217.735L207.68 225.333" stroke="white" stroke-width="2"/>
<circle r="1" transform="matrix(0.707107 -0.707107 -0.707107 -0.707107 207.837 226.742)" stroke="white" stroke-width="1.54367"/>
</g>
<g filter="url(#filter4_d_112_4)">
<path d="M90.2961 242.542L90.2961 250.14" stroke="white" stroke-width="2"/>
<circle r="1" transform="matrix(0.707107 -0.707107 -0.707107 -0.707107 90.4536 251.549)" stroke="white" stroke-width="1.54367"/>
</g>
<g filter="url(#filter5_d_112_4)">
<path d="M141.236 257.159L141.236 264.757" stroke="white" stroke-width="2"/>
<circle r="1" transform="matrix(0.707111 -0.707103 -0.707111 -0.707103 141.393 266.166)" stroke="white" stroke-width="1.54367"/>
</g>
<g filter="url(#filter6_d_112_4)">
<path d="M15.1303 158.236L9.75781 163.608" stroke="white" stroke-width="2"/>
<circle r="1" transform="matrix(1 0 0 -1 8.87267 164.717)" stroke="white" stroke-width="1.54367"/>
</g>
<g filter="url(#filter7_d_112_4)">
<path d="M12.2526 95.5346L6.88013 90.1621" stroke="white" stroke-width="2"/>
<circle r="1" transform="matrix(-4.37102e-08 1 1 4.37126e-08 5.77184 89.2767)" stroke="white" stroke-width="1.54367"/>
</g>
<g filter="url(#filter8_d_112_4)">
<path d="M30.414 52.5668L25.0415 47.1943" stroke="white" stroke-width="2"/>
<circle r="1" transform="matrix(-4.37118e-08 1 1 4.3711e-08 23.9332 46.3099)" stroke="white" stroke-width="1.54367"/>
</g>
<g filter="url(#filter9_d_112_4)">
<path d="M243.197 126.927L248.569 132.3" stroke="white" stroke-width="2"/>
<circle r="1" transform="matrix(-4.37097e-08 -1 -1 4.3713e-08 249.678 133.185)" stroke="white" stroke-width="1.54367"/>
</g>
<g filter="url(#filter10_d_112_4)">
<path d="M244.971 81.5834L250.343 76.2109" stroke="white" stroke-width="2"/>
<circle r="1" transform="matrix(-1 8.74211e-08 8.74244e-08 1 251.228 75.1019)" stroke="white" stroke-width="1.54367"/>
</g>
<g filter="url(#filter11_d_112_4)">
<path d="M163.909 23.1137L169.282 17.7412" stroke="white" stroke-width="2"/>
<circle r="1" transform="matrix(-1 8.74228e-08 8.74228e-08 1 170.167 16.6322)" stroke="white" stroke-width="1.54367"/>
</g>
<g filter="url(#filter12_d_112_4)">
<path d="M239.75 198.727V213.762" stroke="white" stroke-width="2"/>
<circle r="1" transform="matrix(0.707107 -0.707107 -0.707107 -0.707107 239.906 215.171)" stroke="white" stroke-width="1.54367"/>
</g>
<defs>
<filter id="filter0_d_112_4" x="6.05737" y="0.891602" width="245.269" height="269.851" filterUnits="userSpaceOnUse" color-interpolation-filters="sRGB">
<feFlood flood-opacity="0" result="BackgroundImageFix"/>
<feColorMatrix in="SourceAlpha" type="matrix" values="0 0 0 0 0 0 0 0 0 0 0 0 0 0 0 0 0 0 127 0" result="hardAlpha"/>
<feOffset/>
<feGaussianBlur stdDeviation="2"/>
<feComposite in2="hardAlpha" operator="out"/>
<feColorMatrix type="matrix" values="0 0 0 0 1 0 0 0 0 1 0 0 0 0 1 0 0 0 1 0"/>
<feBlend mode="normal" in2="BackgroundImageFix" result="effect1_dropShadow_112_4"/>
<feBlend mode="normal" in="SourceGraphic" in2="effect1_dropShadow_112_4" result="shape"/>
</filter>
<filter id="filter1_d_112_4" x="11.3252" y="193.802" width="11.5435" height="26.2148" filterUnits="userSpaceOnUse" color-interpolation-filters="sRGB">
<feFlood flood-opacity="0" result="BackgroundImageFix"/>
<feColorMatrix in="SourceAlpha" type="matrix" values="0 0 0 0 0 0 0 0 0 0 0 0 0 0 0 0 0 0 127 0" result="hardAlpha"/>
<feOffset/>
<feGaussianBlur stdDeviation="2"/>
<feComposite in2="hardAlpha" operator="out"/>
<feColorMatrix type="matrix" values="0 0 0 0 1 0 0 0 0 1 0 0 0 0 1 0 0 0 1 0"/>
<feBlend mode="normal" in2="BackgroundImageFix" result="effect1_dropShadow_112_4"/>
<feBlend mode="normal" in="SourceGraphic" in2="effect1_dropShadow_112_4" result="shape"/>
</filter>
<filter id="filter2_d_112_4" x="40.5601" y="211.964" width="11.5435" height="18.7783" filterUnits="userSpaceOnUse" color-interpolation-filters="sRGB">
<feFlood flood-opacity="0" result="BackgroundImageFix"/>
<feColorMatrix in="SourceAlpha" type="matrix" values="0 0 0 0 0 0 0 0 0 0 0 0 0 0 0 0 0 0 127 0" result="hardAlpha"/>
<feOffset/>
<feGaussianBlur stdDeviation="2"/>
<feComposite in2="hardAlpha" operator="out"/>
<feColorMatrix type="matrix" values="0 0 0 0 1 0 0 0 0 1 0 0 0 0 1 0 0 0 1 0"/>
<feBlend mode="normal" in2="BackgroundImageFix" result="effect1_dropShadow_112_4"/>
<feBlend mode="normal" in="SourceGraphic" in2="effect1_dropShadow_112_4" result="shape"/>
</filter>
<filter id="filter3_d_112_4" x="202.065" y="213.735" width="11.5435" height="18.7783" filterUnits="userSpaceOnUse" color-interpolation-filters="sRGB">
<feFlood flood-opacity="0" result="BackgroundImageFix"/>
<feColorMatrix in="SourceAlpha" type="matrix" values="0 0 0 0 0 0 0 0 0 0 0 0 0 0 0 0 0 0 127 0" result="hardAlpha"/>
<feOffset/>
<feGaussianBlur stdDeviation="2"/>
<feComposite in2="hardAlpha" operator="out"/>
<feColorMatrix type="matrix" values="0 0 0 0 1 0 0 0 0 1 0 0 0 0 1 0 0 0 1 0"/>
<feBlend mode="normal" in2="BackgroundImageFix" result="effect1_dropShadow_112_4"/>
<feBlend mode="normal" in="SourceGraphic" in2="effect1_dropShadow_112_4" result="shape"/>
</filter>
<filter id="filter4_d_112_4" x="84.6819" y="238.542" width="11.5435" height="18.7783" filterUnits="userSpaceOnUse" color-interpolation-filters="sRGB">
<feFlood flood-opacity="0" result="BackgroundImageFix"/>
<feColorMatrix in="SourceAlpha" type="matrix" values="0 0 0 0 0 0 0 0 0 0 0 0 0 0 0 0 0 0 127 0" result="hardAlpha"/>
<feOffset/>
<feGaussianBlur stdDeviation="2"/>
<feComposite in2="hardAlpha" operator="out"/>
<feColorMatrix type="matrix" values="0 0 0 0 1 0 0 0 0 1 0 0 0 0 1 0 0 0 1 0"/>
<feBlend mode="normal" in2="BackgroundImageFix" result="effect1_dropShadow_112_4"/>
<feBlend mode="normal" in="SourceGraphic" in2="effect1_dropShadow_112_4" result="shape"/>
</filter>
<filter id="filter5_d_112_4" x="135.621" y="253.159" width="11.5435" height="18.7783" filterUnits="userSpaceOnUse" color-interpolation-filters="sRGB">
<feFlood flood-opacity="0" result="BackgroundImageFix"/>
<feColorMatrix in="SourceAlpha" type="matrix" values="0 0 0 0 0 0 0 0 0 0 0 0 0 0 0 0 0 0 127 0" result="hardAlpha"/>
<feOffset/>
<feGaussianBlur stdDeviation="2"/>
<feComposite in2="hardAlpha" operator="out"/>
<feColorMatrix type="matrix" values="0 0 0 0 1 0 0 0 0 1 0 0 0 0 1 0 0 0 1 0"/>
<feBlend mode="normal" in2="BackgroundImageFix" result="effect1_dropShadow_112_4"/>
<feBlend mode="normal" in="SourceGraphic" in2="effect1_dropShadow_112_4" result="shape"/>
</filter>
<filter id="filter6_d_112_4" x="3.10083" y="153.529" width="16.7366" height="16.96" filterUnits="userSpaceOnUse" color-interpolation-filters="sRGB">
<feFlood flood-opacity="0" result="BackgroundImageFix"/>
<feColorMatrix in="SourceAlpha" type="matrix" values="0 0 0 0 0 0 0 0 0 0 0 0 0 0 0 0 0 0 127 0" result="hardAlpha"/>
<feOffset/>
<feGaussianBlur stdDeviation="2"/>
<feComposite in2="hardAlpha" operator="out"/>
<feColorMatrix type="matrix" values="0 0 0 0 1 0 0 0 0 1 0 0 0 0 1 0 0 0 1 0"/>
<feBlend mode="normal" in2="BackgroundImageFix" result="effect1_dropShadow_112_4"/>
<feBlend mode="normal" in="SourceGraphic" in2="effect1_dropShadow_112_4" result="shape"/>
</filter>
<filter id="filter7_d_112_4" x="0" y="83.5049" width="16.9597" height="16.7363" filterUnits="userSpaceOnUse" color-interpolation-filters="sRGB">
<feFlood flood-opacity="0" result="BackgroundImageFix"/>
<feColorMatrix in="SourceAlpha" type="matrix" values="0 0 0 0 0 0 0 0 0 0 0 0 0 0 0 0 0 0 127 0" result="hardAlpha"/>
<feOffset/>
<feGaussianBlur stdDeviation="2"/>
<feComposite in2="hardAlpha" operator="out"/>
<feColorMatrix type="matrix" values="0 0 0 0 1 0 0 0 0 1 0 0 0 0 1 0 0 0 1 0"/>
<feBlend mode="normal" in2="BackgroundImageFix" result="effect1_dropShadow_112_4"/>
<feBlend mode="normal" in="SourceGraphic" in2="effect1_dropShadow_112_4" result="shape"/>
</filter>
<filter id="filter8_d_112_4" x="18.1614" y="40.5381" width="16.9597" height="16.7354" filterUnits="userSpaceOnUse" color-interpolation-filters="sRGB">
<feFlood flood-opacity="0" result="BackgroundImageFix"/>
<feColorMatrix in="SourceAlpha" type="matrix" values="0 0 0 0 0 0 0 0 0 0 0 0 0 0 0 0 0 0 127 0" result="hardAlpha"/>
<feOffset/>
<feGaussianBlur stdDeviation="2"/>
<feComposite in2="hardAlpha" operator="out"/>
<feColorMatrix type="matrix" values="0 0 0 0 1 0 0 0 0 1 0 0 0 0 1 0 0 0 1 0"/>
<feBlend mode="normal" in2="BackgroundImageFix" result="effect1_dropShadow_112_4"/>
<feBlend mode="normal" in="SourceGraphic" in2="effect1_dropShadow_112_4" result="shape"/>
</filter>
<filter id="filter9_d_112_4" x="238.49" y="122.221" width="16.9597" height="16.7363" filterUnits="userSpaceOnUse" color-interpolation-filters="sRGB">
<feFlood flood-opacity="0" result="BackgroundImageFix"/>
<feColorMatrix in="SourceAlpha" type="matrix" values="0 0 0 0 0 0 0 0 0 0 0 0 0 0 0 0 0 0 127 0" result="hardAlpha"/>
<feOffset/>
<feGaussianBlur stdDeviation="2"/>
<feComposite in2="hardAlpha" operator="out"/>
<feColorMatrix type="matrix" values="0 0 0 0 1 0 0 0 0 1 0 0 0 0 1 0 0 0 1 0"/>
<feBlend mode="normal" in2="BackgroundImageFix" result="effect1_dropShadow_112_4"/>
<feBlend mode="normal" in="SourceGraphic" in2="effect1_dropShadow_112_4" result="shape"/>
</filter>
<filter id="filter10_d_112_4" x="240.263" y="69.3301" width="16.7366" height="16.96" filterUnits="userSpaceOnUse" color-interpolation-filters="sRGB">
<feFlood flood-opacity="0" result="BackgroundImageFix"/>
<feColorMatrix in="SourceAlpha" type="matrix" values="0 0 0 0 0 0 0 0 0 0 0 0 0 0 0 0 0 0 127 0" result="hardAlpha"/>
<feOffset/>
<feGaussianBlur stdDeviation="2"/>
<feComposite in2="hardAlpha" operator="out"/>
<feColorMatrix type="matrix" values="0 0 0 0 1 0 0 0 0 1 0 0 0 0 1 0 0 0 1 0"/>
<feBlend mode="normal" in2="BackgroundImageFix" result="effect1_dropShadow_112_4"/>
<feBlend mode="normal" in="SourceGraphic" in2="effect1_dropShadow_112_4" result="shape"/>
</filter>
<filter id="filter11_d_112_4" x="159.202" y="10.8604" width="16.7366" height="16.96" filterUnits="userSpaceOnUse" color-interpolation-filters="sRGB">
<feFlood flood-opacity="0" result="BackgroundImageFix"/>
<feColorMatrix in="SourceAlpha" type="matrix" values="0 0 0 0 0 0 0 0 0 0 0 0 0 0 0 0 0 0 127 0" result="hardAlpha"/>
<feOffset/>
<feGaussianBlur stdDeviation="2"/>
<feComposite in2="hardAlpha" operator="out"/>
<feColorMatrix type="matrix" values="0 0 0 0 1 0 0 0 0 1 0 0 0 0 1 0 0 0 1 0"/>
<feBlend mode="normal" in2="BackgroundImageFix" result="effect1_dropShadow_112_4"/>
<feBlend mode="normal" in="SourceGraphic" in2="effect1_dropShadow_112_4" result="shape"/>
</filter>
<filter id="filter12_d_112_4" x="234.135" y="194.728" width="11.5435" height="26.2148" filterUnits="userSpaceOnUse" color-interpolation-filters="sRGB">
<feFlood flood-opacity="0" result="BackgroundImageFix"/>
<feColorMatrix in="SourceAlpha" type="matrix" values="0 0 0 0 0 0 0 0 0 0 0 0 0 0 0 0 0 0 127 0" result="hardAlpha"/>
<feOffset/>
<feGaussianBlur stdDeviation="2"/>
<feComposite in2="hardAlpha" operator="out"/>
<feColorMatrix type="matrix" values="0 0 0 0 1 0 0 0 0 1 0 0 0 0 1 0 0 0 1 0"/>
<feBlend mode="normal" in2="BackgroundImageFix" result="effect1_dropShadow_112_4"/>
<feBlend mode="normal" in="SourceGraphic" in2="effect1_dropShadow_112_4" result="shape"/>
</filter>
</defs>
</svg>
